<svg xmlns="http://www.w3.org/2000/svg" version="1.1" xmlns:xlink="http://www.w3.org/1999/xlink" xmlns:svgjs="http://svgjs.com/svgjs" width="275.28" height="209.32"><svg id="SvgjsSvg1000" xmlns="http://www.w3.org/2000/svg" viewBox="0 0 275.28 209.32"><title>Buca SVG</title><path d="M589.5,106.5" transform="translate(-481.16 -180.81)" fill="#fff" stroke="#000" stroke-miterlimit="10"></path><path d="M833.5,238.5" transform="translate(-481.16 -180.81)" fill="#fff" stroke="#000" stroke-miterlimit="10"></path><ellipse cx="180.59" cy="81.44" rx="14.25" ry="12.25" fill="none" stroke="#000" stroke-miterlimit="10"></ellipse><path d="M616.5,156.5" transform="translate(-481.16 -180.81)" fill="#fff" stroke="#000" stroke-miterlimit="10"></path><path d="M716.5,356.5" transform="translate(-481.16 -180.81)" fill="none" stroke="#000" stroke-miterlimit="10"></path><path d="M712.5,325.5" transform="translate(-481.16 -180.81)" fill="none" stroke="#000" stroke-miterlimit="10"></path><path d="M703.5,203.5c5.88,5.14,17,26,21,28s7,1,10,3,11,10,14,11l3,1h-7l4,2-5,1s11,10,12,17,0,20,0,20-7,15-11,19c0,0-19,16-31,10,0,0,20,46-59,68" transform="translate(-481.16 -180.81)" fill="none" stroke="#000" stroke-miterlimit="10"></path><path d="M705.5,213.5" transform="translate(-481.16 -180.81)" fill="none" stroke="#000" stroke-miterlimit="10"></path><path d="M721.5,215.5" transform="translate(-481.16 -180.81)" fill="none" stroke="#000" stroke-miterlimit="10"></path><path d="M575.5,360.5" transform="translate(-481.16 -180.81)" fill="none" stroke="#000" stroke-miterlimit="10"></path><path d="M654.5,383.5h-9l4,2h-4l-5,1,2,3h-6l-1-3-3,3-4.58-2.75-5.42-3.25-3,4-11-6s-2,2-8,0c-30-3-53-41-53-41-6-10-10-29-10-29l2-5-4-3,1-5-5-3,5-2-10-6-7,2c-31-18-41-46-37-54s20-28,42-35c18-6,42,15,42,15s-9-12-20-17l-11-5,9,1s2-3,6-1,15,7,15,7l-3-4,6,3,3-3,3,4s9.24-13.42,23-16c16-3,26-3,26-3,65.67-2.41,69,19.09,80,22" transform="translate(-481.16 -180.81)" fill="none" stroke="#000" stroke-miterlimit="10"></path><path d="M770.5,299.5" transform="translate(-481.16 -180.81)" fill="none" stroke="#000" stroke-miterlimit="10"></path><path d="M522.26,274" transform="translate(-481.16 -180.81)" fill="none" stroke="#000" stroke-miterlimit="10"></path><path d="M561.5,228.5c-5.21-4.71-13.76-7-20.76-6.39-3.13.28-6.69.92-8.32,3.61" transform="translate(-481.16 -180.81)" fill="none" stroke="#000" stroke-miterlimit="10"></path><path d="M554.67,261.93" transform="translate(-481.16 -180.81)" fill="none" stroke="#000" stroke-miterlimit="10"></path><path d="M559,257.5" transform="translate(-481.16 -180.81)" fill="none" stroke="#000" stroke-miterlimit="10"></path><path d="M525,271c3.46-1.95,7.41-2,11.31-1.19A15.22,15.22,0,0,0,527,275a8,8,0,0,0-2,4.12,8.69,8.69,0,0,0,2.36,6.43,12.82,12.82,0,0,1,1.83-8,5,5,0,0,0,1.33,6c-3-11,8.68-11.54,8.68-11.54a8.19,8.19,0,0,0-2.12,5.05,21.63,21.63,0,0,0,.44,5.49c0-9,11-11,11-11,4-2,7-8,7-8l2-3" transform="translate(-481.16 -180.81)" fill="none" stroke="#000" stroke-miterlimit="10"></path><path d="M524.86,270.32a9.36,9.36,0,0,1,7.17-7.85c-2.56-6.27-4.41-11.69-4.46-18.46s1.22-12.84,4.93-18.51" transform="translate(-481.16 -180.81)" fill="none" stroke="#000" stroke-miterlimit="10"></path><path d="M561.5,229.5" transform="translate(-481.16 -180.81)" fill="none" stroke="#000" stroke-miterlimit="10"></path><path d="M557.69,260.26a79,79,0,0,1-9.31-3.91,22.44,22.44,0,0,0,12.2-3.37c-4.1.9-8-1.8-11.36-4.35a23.57,23.57,0,0,0,7.91,1.2c2.67-.2,5.42-1.5,6.64-3.89a10.81,10.81,0,0,1-13.1-4.24,13.14,13.14,0,0,0,8.22.41c1.61-.46,3.39-1.62,3.26-3.29-4,1.09-8.23,2-10.65-1.32,4.61,1.21,6.84-5.44,10-9" transform="translate(-481.16 -180.81)" fill="none" stroke="#000" stroke-miterlimit="10"></path><ellipse cx="181.21" cy="81.44" rx="11.15" ry="11.03" stroke="#000" stroke-miterlimit="10"></ellipse><ellipse cx="175.63" cy="77.15" rx="1.86" ry="1.84" fill="#fff" stroke="#000" stroke-miterlimit="10"></ellipse><ellipse cx="179.97" cy="78.99" rx="2.48" ry="2.45" fill="#fff" stroke="#000" stroke-miterlimit="10"></ellipse><path d="M642.68,303.74c1.81-2.77,2.25-11-.18-13.24-5.52-5.08-11.61-3.86-16-4-10.56-.34-16.14,6.86-15.59,10.81.48,3.49.87,7.38,3.26,10,2.57,2.79,6.65,3.49,10.43,3.76a20.62,20.62,0,0,0,3.24,0,19.52,19.52,0,0,0,2.38-.35c2.73-.57,5.54-.36,7.87-1.9s4.55-3.49,5-6.19" transform="translate(-481.16 -180.81)" fill="none" stroke="#000" stroke-miterlimit="10"></path><path d="M631.5,293.5" transform="translate(-481.16 -180.81)" fill="none" stroke="#000" stroke-miterlimit="10"></path><path d="M620.5,301.5" transform="translate(-481.16 -180.81)" fill="none" stroke="#000" stroke-miterlimit="10"></path><path d="M615.5,304.5" transform="translate(-481.16 -180.81)" fill="none" stroke="#000" stroke-miterlimit="10"></path><path d="M621.5,306.5" transform="translate(-481.16 -180.81)" fill="none" stroke="#000" stroke-miterlimit="10"></path><path d="M626.5,295.5" transform="translate(-481.16 -180.81)" fill="none" stroke="#000" stroke-miterlimit="10"></path><path d="M628.28,315.84" transform="translate(-481.16 -180.81)" fill="none" stroke="#000" stroke-miterlimit="10"></path><path d="M638.5,303.5c.25-.42-.65.34-1,0-2.1-2-2.35-.82-2.5-3.72a6,6,0,0,1,.47-2.9,3,3,0,0,1,2.25-1.73c.95-.11,1.68.75,2.61,1,3.48.93.24,6.5-1.83,7.35" transform="translate(-481.16 -180.81)" fill="none" stroke="#000" stroke-miterlimit="10"></path><path d="M620.78,297.35c0-1.68-3.82-3.38-5.4-2.21-2.38,1.78-2.24,3.6-1.41,6.45.32,1.1,1,2.36,2.19,2.33s1.7-1.07,2.08-2c.56-1.43,2.42-3,2.54-4.54" transform="translate(-481.16 -180.81)" fill="none" stroke="#000" stroke-miterlimit="10"></path><path d="M603.5,332.5c1,6.28,27.75,52.56,55-3" transform="translate(-481.16 -180.81)" fill="none" stroke="#000" stroke-miterlimit="10"></path><path d="M607.5,332.5" transform="translate(-481.16 -180.81)" fill="none" stroke="#000" stroke-miterlimit="10"></path><path d="M588.5,332.5" transform="translate(-481.16 -180.81)" fill="none" stroke="#000" stroke-miterlimit="10"></path><path d="M671,341.49" transform="translate(-481.16 -180.81)" fill="none" stroke="#000" stroke-miterlimit="10"></path><path d="M677.8,327.33a28.09,28.09,0,0,1,5.58,4.91,29.19,29.19,0,0,1,2.5-7.15,19.06,19.06,0,0,1,5.42,7.85,46.36,46.36,0,0,0,.37-8.49l2.56,2.83a26.33,26.33,0,0,0,1.5-9.43,8.48,8.48,0,0,0,1.95,3.42,35.5,35.5,0,0,0,.85-11.62" transform="translate(-481.16 -180.81)" fill="none" stroke="#000" stroke-miterlimit="10"></path><path d="M593.92,334.27l-3.86,5.11a36.74,36.74,0,0,1-3.48-8.49,26.72,26.72,0,0,0-7.21,6.05,14.58,14.58,0,0,1-1-6.12,48.55,48.55,0,0,1-6.24,5.3,20.71,20.71,0,0,1-1.07-8l-1.31,1.11A22.37,22.37,0,0,1,573.34,316" transform="translate(-481.16 -180.81)" fill="none" stroke="#000" stroke-miterlimit="10"></path><path d="M664.94,294.06" transform="translate(-481.16 -180.81)" fill="none" stroke="#000" stroke-miterlimit="10"></path><path d="M671.72,316" transform="translate(-481.16 -180.81)" fill="none" stroke="#000" stroke-miterlimit="10"></path><path d="M664,318" transform="translate(-481.16 -180.81)" fill="none" stroke="#000" stroke-miterlimit="10"></path><path d="M669.33,339.33A11.24,11.24,0,0,1,671,335l3.31,2,.14-3.67,2.84,1.34a22.32,22.32,0,0,0-.33-6.32" transform="translate(-481.16 -180.81)" fill="none" stroke="#000" stroke-miterlimit="10"></path><path d="M613.5,333.5c-1,7-.1,11.4,5.38,15a20.66,20.66,0,0,0,8,3.06,26,26,0,0,0,7.32.32,19.52,19.52,0,0,0,16.57-16.22c.38-2.78-3-3.38-3.26-6.18" transform="translate(-481.16 -180.81)" fill="none" stroke="#000" stroke-miterlimit="10"></path><path d="M667.94,339.68a18.87,18.87,0,0,1-1.69-6.56l-2.78,2.31a31.07,31.07,0,0,0-4.68-6.52,34.25,34.25,0,0,1-6.18,4.08,10.57,10.57,0,0,0-.5-4.36c.39-.28.19.64-.28.75a10.2,10.2,0,0,1-4.65.27,3.53,3.53,0,0,1-2.83-3.29,6.76,6.76,0,0,1-2.33,2.48,40.35,40.35,0,0,0-6.1-4.21l-1.72,3.84A44.13,44.13,0,0,1,629,323.1a7.86,7.86,0,0,1-.92,5.71,55.65,55.65,0,0,1-5.49-4.8" transform="translate(-481.16 -180.81)" fill="none" stroke="#000" stroke-miterlimit="10"></path><path d="M617.34,327.66c2,1.08,3.85,1.56,5.31,3.33a23.93,23.93,0,0,0,.32-6.32" transform="translate(-481.16 -180.81)" fill="none" stroke="#000" stroke-miterlimit="10"></path><path d="M616.78,327a11.14,11.14,0,0,0,1,4.69,12.55,12.55,0,0,1-4.21-3.86,6.36,6.36,0,0,1,.24,5.34,8.54,8.54,0,0,1-5.71-4.68,28.57,28.57,0,0,1-.7,7.81l-2.46-2.14a5.69,5.69,0,0,1-2-2.53,29.26,29.26,0,0,1-1.49,9,45.3,45.3,0,0,0-6.77-8" transform="translate(-481.16 -180.81)" fill="none" stroke="#000" stroke-miterlimit="10"></path><path d="M504.93,237q1.9,6.19,4.35,12.19a11.22,11.22,0,0,0,4-4,61.09,61.09,0,0,0-1,8.43,6.77,6.77,0,0,1,3-2,23.67,23.67,0,0,1,1.93,7.05l2.19-.8.89,5.78a1.75,1.75,0,0,0,2-1" transform="translate(-481.16 -180.81)" fill="none" stroke="#000" stroke-miterlimit="10"></path><path d="M583.6,234.82" transform="translate(-481.16 -180.81)" fill="none" stroke="#000" stroke-miterlimit="10"></path><path d="M600.22,244.68" transform="translate(-481.16 -180.81)" fill="none" stroke="#000" stroke-miterlimit="10"></path><path d="M729.53,244" transform="translate(-481.16 -180.81)" fill="none" stroke="#000" stroke-miterlimit="10"></path><path d="M698.82,247.48c-2.17,3.23-1.11,7.68-1.81,11.51-3.58,19.51,4.62,39.49,16.3,55.52" transform="translate(-481.16 -180.81)" fill="none" stroke="#000" stroke-miterlimit="10"></path><ellipse cx="114.34" cy="83.44" rx="14.5" ry="12.25" fill="none" stroke="#000" stroke-miterlimit="10"></ellipse><ellipse cx="114.97" cy="83.44" rx="11.35" ry="11.03" stroke="#000" stroke-miterlimit="10"></ellipse><ellipse cx="109.29" cy="79.15" rx="1.89" ry="1.84" fill="#fff" stroke="#000" stroke-miterlimit="10"></ellipse><ellipse cx="113.71" cy="80.99" rx="2.52" ry="2.45" fill="#fff" stroke="#000" stroke-miterlimit="10"></ellipse><path d="M615,242.69a21.07,21.07,0,0,0,7.39,5.92l3-4.61a17.88,17.88,0,0,0,1.45,3.87,1.14,1.14,0,0,0,.62.65,1.15,1.15,0,0,0,1-.39,39.79,39.79,0,0,0,3.17-3.06,16.72,16.72,0,0,0,1.2,3.62l3.34-2c.49-.3,1.27-.53,1.52,0a8.19,8.19,0,0,0,2.42-5.3" transform="translate(-481.16 -180.81)" fill="none" stroke="#000" stroke-miterlimit="10"></path><path d="M720.27,303.94a26.72,26.72,0,0,0,4.26,3.53l0-3.09a1,1,0,0,1,.15-.65c.31-.37.9-.14,1.3.11l3.71,2.29.06-4.29a18.28,18.28,0,0,0,5.8,1.56,11,11,0,0,1,.4-4.2l3.68,2.82a5.61,5.61,0,0,0,.78-2.48c.19-.86.76-1.8,1.64-1.78s1.45.75,2.16.48l.51-3.78" transform="translate(-481.16 -180.81)" fill="none" stroke="#000" stroke-miterlimit="10"></path><path d="M628,308a21.26,21.26,0,0,0-.81-2,25.16,25.16,0,0,1-1.75-6.9" transform="translate(-481.16 -180.81)" fill="none" stroke="#000" stroke-miterlimit="10"></path><path d="M624.07,308a11.94,11.94,0,0,1,1.88.17c2.81.29,5.52-.78,8-1.83" transform="translate(-481.16 -180.81)" fill="none" stroke="#000" stroke-miterlimit="10"></path></svg><style>@media (prefers-color-scheme: light) { :root { filter: none; } }
</style></svg>